{"asset":{"version":"2.0","generator":"babylon.js glTF exporter for Autodesk MAYA 2022 v20250723.2"},"scene":0,"scenes":[{"nodes":[0]}],"nodes":[{"mesh":0,"name":"Donut_Body_V01"}],"meshes":[{"primitives":[{"attributes":{"POSITION":1,"TANGENT":2,"NORMAL":3,"COLOR_0":4,"TEXCOORD_0":5},"indices":0,"material":0},{"attributes":{"POSITION":7,"TANGENT":8,"NORMAL":9,"COLOR_0":10,"TEXCOORD_0":11},"indices":6,"material":1}],"name":"Donut_Body_V01"}],"accessors":[{"bufferView":0,"componentType":5123,"count":2772,"type":"SCALAR","name":"accessorIndices"},{"bufferView":1,"componentType":5126,"count":638,"max":[0.09376596,0.0577998348,0.0127372714],"min":[-0.09376596,-1.66893E-08,-0.005598729],"type":"VEC3","name":"accessorPositions"},{"bufferView":2,"componentType":5126,"count":638,"type":"VEC4","name":"accessorTangents"},{"bufferView":1,"byteOffset":7656,"componentType":5126,"count":638,"type":"VEC3","name":"accessorNormals"},{"bufferView":2,"byteOffset":10208,"componentType":5126,"count":638,"type":"VEC4","name":"accessorColors"},{"bufferView":3,"componentType":5126,"count":638,"type":"VEC2","name":"accessorUVs"},{"bufferView":0,"byteOffset":5544,"componentType":5123,"count":1968,"type":"SCALAR","name":"accessorIndices"},{"bufferView":1,"byteOffset":15312,"componentType":5126,"count":440,"max":[0.0375151634,0.103059538,0.0147367986],"min":[-0.0375151634,0.0280291829,-0.0147367986],"type":"VEC3","name":"accessorPositions"},{"bufferView":2,"byteOffset":20416,"componentType":5126,"count":440,"type":"VEC4","name":"accessorTangents"},{"bufferView":1,"byteOffset":20592,"componentType":5126,"count":440,"type":"VEC3","name":"accessorNormals"},{"bufferView":2,"byteOffset":27456,"componentType":5126,"count":440,"type":"VEC4","name":"accessorColors"},{"bufferView":3,"byteOffset":5104,"componentType":5126,"count":440,"type":"VEC2","name":"accessorUVs"}],"bufferViews":[{"buffer":0,"byteLength":9480,"name":"bufferViewScalar"},{"buffer":0,"byteOffset":9480,"byteLength":25872,"byteStride":12,"name":"bufferViewFloatVec3"},{"buffer":0,"byteOffset":35352,"byteLength":34496,"byteStride":16,"name":"bufferViewFloatVec4"},{"buffer":0,"byteOffset":69848,"byteLength":8624,"byteStride":8,"name":"bufferViewFloatVec2"}],"buffers":[{"uri":"Donut_Good_V01.bin","byteLength":78472}],"materials":[{"pbrMetallicRoughness":{"baseColorFactor":[0.8,0.8,0.8,1.0],"metallicFactor":0.0,"roughnessFactor":0.2},"name":"Donut_Legs"},{"pbrMetallicRoughness":{"baseColorFactor":[0.8,0.8,0.8,1.0],"metallicFactor":0.0,"roughnessFactor":0.2},"name":"Donut_Body"}]}